<svg width="69" height="73" viewBox="0 0 69 73" fill="none" xmlns="http://www.w3.org/2000/svg">
<path d="M21.4108 7.39283C22.1056 7.09354 22.7897 6.76533 23.4971 6.49913C26.4717 5.38181 29.5577 4.78168 32.7176 4.60905C36.3344 4.41149 39.887 4.85263 43.357 5.91725C47.1841 7.09143 50.6696 8.93706 53.811 11.4464C56.5334 13.621 58.836 16.1881 60.731 19.13C60.8588 19.3286 61.06 19.5071 60.8906 19.8104C60.8215 19.9346 60.8892 20.138 60.8953 20.3398C61.0753 20.3023 61.224 20.2715 61.4246 20.2296C61.8656 21.0659 62.3113 21.9089 62.7803 22.7984C62.3417 22.8608 61.9733 22.9325 61.6028 22.9526C61.5069 22.9581 61.3669 22.8243 61.3076 22.7192C60.7177 21.6702 60.189 20.5821 59.5448 19.5698C58.9925 18.7018 58.3336 17.8995 57.6852 17.0986C54.6231 13.3152 50.8757 10.4378 46.4639 8.45743C42.9991 6.90285 39.3698 6.05168 35.5825 5.88595C33.5036 5.79492 31.4461 5.96292 29.388 6.25349C28.0198 6.44666 26.6954 6.80805 25.3913 7.22595C24.0851 7.64488 22.792 8.13694 21.5509 8.72332C20.3001 9.31477 19.0961 10.0213 17.9148 10.7491C16.3258 11.7295 14.8968 12.9298 13.5336 14.2136C12.628 15.0663 11.798 15.9884 11.0228 16.9583C10.7622 17.2849 10.5277 17.4512 10.1296 17.2725C10.0671 17.2443 9.99064 17.247 9.9023 17.2328C9.70692 17.5494 9.90006 17.8493 9.9168 18.1491C9.92134 18.2346 9.93251 18.3414 9.88995 18.4038C9.50513 18.9797 9.10895 19.5476 8.69425 20.1508C8.42642 19.9298 8.18975 20.0808 8.07387 20.3111C8.01871 20.4199 8.18444 20.6435 8.275 20.8793C7.26454 22.6215 6.33968 24.5162 5.70774 26.5386C5.30491 27.8282 4.99264 29.1481 4.64872 30.4561C4.59274 30.6697 4.45878 30.7645 4.31221 30.9108C3.98642 31.2371 3.59767 31.0994 3.19322 31.2861C3.31428 30.6608 3.41084 30.091 3.5368 29.5275C4.49092 25.2655 6.22575 21.3602 8.74692 17.8151C10.5644 15.2589 12.7111 13.0284 15.175 11.1115C15.3064 11.0089 15.4514 10.9088 15.6064 10.8548C15.9108 10.7492 16.2616 10.7245 16.304 10.2864C16.3078 10.245 16.3921 10.2093 16.4415 10.1748C17.9551 9.12574 19.5457 8.21423 21.2131 7.43952C21.2777 7.40954 21.3514 7.39757 21.4203 7.37737C21.4072 7.40894 21.3902 7.43956 21.3816 7.47271C21.3512 7.58543 21.3237 7.69847 21.2947 7.81172C21.4056 7.8249 21.5396 7.88305 21.6223 7.84084C21.7418 7.77929 21.824 7.64362 21.9223 7.53981C21.8449 7.47286 21.7759 7.37652 21.6871 7.34832C21.6061 7.32347 21.5027 7.37456 21.409 7.39085L21.4108 7.39283ZM17.888 10.4189C18.1337 10.1434 18.3836 9.87102 18.6137 9.58291C18.6274 9.5661 18.4933 9.35949 18.4083 9.34263C18.1689 9.29502 17.5836 9.71831 17.5037 9.95982C17.411 10.241 17.5299 10.3911 17.888 10.4189ZM23.7031 7.07043C24.1148 7.28951 24.4996 7.26149 24.7246 6.95777C24.8066 6.84736 24.8373 6.63068 24.7865 6.50724C24.7516 6.4246 24.5262 6.37277 24.3969 6.39042C24.0285 6.44135 23.8257 6.70406 23.7031 7.07043ZM4.04078 29.1878C4.43145 29.2866 4.69932 29.1705 4.70791 28.8686C4.71174 28.7486 4.57445 28.5558 4.45972 28.5149C4.27185 28.4481 4.05876 28.8006 4.04078 29.1878ZM31.1437 5.68819C31.2399 5.53197 31.3284 5.43697 31.3499 5.32776C31.3575 5.28806 31.1814 5.15277 31.1284 5.17218C31.0239 5.21006 30.947 5.32568 30.859 5.40873C30.9361 5.48461 31.0133 5.5605 31.1437 5.68819Z" fill="#06C270" fill-opacity="0.34"/>
<path d="M28.773 67.9811C28.9289 67.8224 29.0516 67.721 29.1439 67.595C29.2092 67.5063 29.2313 67.3859 29.2729 67.2797C29.1446 67.2304 28.9975 67.1148 28.8919 67.1454C28.6923 67.2042 28.486 67.316 28.3365 67.462C28.029 67.7618 27.7207 67.8035 27.303 67.7048C23.2741 66.7531 19.5656 65.078 16.182 62.6692C14.2002 61.2585 12.398 59.6389 10.7901 57.8001C10.7588 57.7644 10.7327 57.7236 10.7201 57.7068C11.0463 57.4466 11.366 57.1925 11.6651 56.9532C12.5468 57.8107 13.4424 58.7524 14.4104 59.6094C18.7581 63.4579 23.7895 65.8527 29.4825 66.8126C29.8505 66.8746 30.224 66.9076 30.591 66.9734C30.8109 67.0127 31.0719 66.931 31.1644 67.3076C31.2119 67.502 31.4785 67.4188 31.6533 67.2811C31.7575 67.1987 31.9082 67.1186 32.0323 67.127C34.3883 67.2899 36.7309 67.1927 39.065 66.8288C39.2054 66.8066 39.3698 66.8789 39.5111 66.9368C39.7509 67.0348 39.945 67.0517 40.0668 66.7642C40.0928 66.7033 40.1689 66.6398 40.2332 66.6232C40.9111 66.4503 41.5916 66.2859 42.2717 66.1231C42.339 66.1069 42.4277 66.092 42.4809 66.1223C42.6981 66.2473 42.8028 66.1426 42.9652 65.9888C43.1199 65.8428 43.3705 65.7923 43.5855 65.7224C47.0432 64.6054 50.1915 62.8991 53.035 60.6163C56.9954 57.4367 59.9788 53.4889 62.0233 48.809C62.2621 48.262 62.4721 47.7028 62.7068 47.1208C62.9864 47.2317 63.2152 47.1294 63.2598 46.8335C63.2791 46.7038 63.1152 46.546 63.0256 46.3858C63.3523 45.0223 63.6926 43.5878 64.0466 42.1573C64.0683 42.0711 64.1917 41.9689 64.2828 41.95C64.6245 41.8806 64.9721 41.8438 65.3978 41.7832C65.2662 42.4649 65.1436 43.1 65.0163 43.7595C64.8134 43.7268 64.6413 43.6993 64.4353 43.6655C64.3623 44.0516 64.3778 44.3849 64.6147 44.6994C64.6776 44.7832 64.7044 44.9398 64.6765 45.044C63.8804 47.9984 62.6784 50.7752 61.0858 53.3752C58.9831 56.808 56.3356 59.7384 53.1429 62.1578C50.5077 64.1541 47.6479 65.7346 44.5119 66.7487C42.9421 67.2564 41.3223 67.6041 39.7245 68.0207C39.5974 68.0537 39.4636 68.0601 39.3365 68.0782C39.1061 67.5727 39.0302 67.5746 38.6072 67.9444C38.4291 68.1004 38.1881 68.2468 37.9618 68.2723C34.9511 68.6182 31.9475 68.5615 28.9584 68.0298C28.9148 68.0219 28.8725 68.0071 28.7714 67.9799L28.773 67.9811ZM58.6155 55.6309C59.0363 55.7202 59.2775 55.6124 59.2827 55.2969C59.2848 55.1748 59.1442 54.984 59.027 54.9413C58.8482 54.8769 58.6241 55.2607 58.6155 55.6309ZM60.8636 51.6377C60.7357 51.9075 60.6387 52.0631 60.5957 52.2333C60.5841 52.281 60.7902 52.4373 60.7981 52.431C60.9497 52.2943 61.0938 52.1461 61.2153 51.9826C61.2245 51.9701 61.0498 51.819 60.8637 51.6384L60.8636 51.6377ZM26.8751 66.6157C26.5943 66.6541 26.352 66.7176 26.3229 67.035C26.3202 67.0628 26.5583 67.1648 26.6657 67.1421C26.9258 67.0858 27.0718 66.9307 26.8751 66.6157ZM47.2427 64.698L47.2976 64.8773C47.4688 64.8715 47.6407 64.8656 47.8119 64.8598L47.7862 64.3215C47.7468 64.3063 47.7067 64.292 47.6673 64.2768C47.5258 64.4172 47.3841 64.5569 47.2426 64.6973L47.2427 64.698Z" fill="#06C270" fill-opacity="0.34"/>
<path d="M16.4636 50.0523L16.2884 48.7906C16.4246 48.7645 16.5492 48.7342 16.6755 48.7162C29.3014 46.9192 41.9283 45.1243 54.553 43.3186C54.914 43.2673 55.0048 43.3731 55.0416 43.7116C55.1319 44.5466 55.1475 44.5488 54.3257 44.6657C43.8049 46.1625 33.2846 47.6577 22.7637 49.1537C20.8172 49.4307 18.8708 49.709 16.9244 49.9867C16.7837 50.0067 16.643 50.0267 16.4636 50.0523ZM29.7421 48.1164C30.1824 47.6506 30.2006 47.4758 29.8665 47.0727C29.3824 47.3606 29.3294 47.7482 29.7421 48.1164ZM22.689 48.8741C22.9124 48.7116 23.2324 48.6498 23.1262 48.2959C23.1071 48.2318 22.8058 48.1707 22.7132 48.2314C22.4845 48.3813 22.4595 48.6127 22.689 48.8741ZM26.0518 48.0378C26.0922 48.0447 26.1326 48.0508 26.1731 48.0577C26.2056 47.9491 26.2968 47.7996 26.2565 47.7414C26.196 47.6535 26.0455 47.6289 25.933 47.5781C25.9116 47.6079 25.8901 47.6377 25.8694 47.6681C25.9305 47.7915 25.9907 47.9144 26.0518 48.0378Z" fill="#06C270" fill-opacity="0.34"/>
<path d="M52.335 24.2696L13.6675 29.7707L13.4973 28.5447C13.6228 28.5209 13.7582 28.489 13.8953 28.4695C23.0813 27.1642 32.2682 25.8601 41.4541 24.554C44.8821 24.0664 48.311 23.58 51.7368 23.077C52.0883 23.0256 52.2161 23.118 52.2286 23.4666C52.2375 23.72 52.2936 23.9718 52.335 24.2696ZM41.4422 25.2061C41.5822 25.0288 41.6736 24.9118 41.7658 24.7955C41.6742 24.7373 41.5557 24.6109 41.4954 24.635C41.3587 24.6894 41.2499 24.8177 41.1303 24.9156C41.2136 24.9936 41.2969 25.0716 41.4415 25.2069L41.4422 25.2061Z" fill="#06C270" fill-opacity="0.34"/>
<path d="M58.0169 49.8645L58.0911 50.3988C58.1829 50.4058 58.2739 50.4129 58.3827 50.4219C58.3694 50.4684 58.3645 50.5173 58.3427 50.5553C57.394 52.2367 56.2801 53.7975 55.0103 55.2425C53.722 56.7079 52.3054 58.0334 50.7413 59.1936C50.4884 59.381 50.2347 59.567 49.9725 59.7402C49.7566 59.8823 49.5815 60.1024 49.2421 59.9569C49.1223 59.9057 48.832 60.071 48.7219 60.2166C47.848 61.3817 46.5025 61.7595 45.2903 62.3544C44.9518 62.5206 44.564 62.5794 44.2088 62.7153C43.6973 62.9114 43.2059 63.1676 42.6864 63.3373C40.7169 63.9813 38.699 64.3982 36.6333 64.5496C35.7877 64.6112 34.9385 64.6578 34.0907 64.6507C33.212 64.6428 32.3308 64.5952 31.4573 64.5035C30.5958 64.4137 29.7358 64.277 28.8864 64.1053C28.037 63.9344 27.1899 63.732 26.3605 63.478C22.9292 62.4287 19.8063 60.775 17.0037 58.5025C15.3104 57.1295 13.7861 55.5869 12.4617 53.8451C12.339 53.6836 12.2577 53.4613 12.2347 53.2589C12.2086 53.0288 12.1152 52.9203 11.9178 52.8267C11.7454 52.745 11.5569 52.6263 11.457 52.4705C10.888 51.5827 10.3431 50.6788 9.78457 49.7716C10.3664 49.5232 10.4258 49.5452 10.6865 50.0048C13.9399 55.7409 18.6015 59.8261 24.6868 62.2091C29.2798 64.0078 34.0276 64.46 38.8711 63.6135C44.4714 62.6349 49.3072 60.1043 53.3674 56.062C53.586 55.8438 53.8619 55.6805 54.0609 55.4473C54.5215 54.9059 54.979 54.3583 55.3856 53.7756C56.2209 52.5803 57.0221 51.3609 57.8364 50.1507C57.8824 50.0818 57.9244 50.0098 58.0153 49.8632L58.0169 49.8645Z" fill="#06C270" fill-opacity="0.34"/>
<path d="M39.765 58.2221C39.0224 57.9446 38.362 57.7164 37.7181 57.4487C37.3856 57.3104 37.1282 57.3121 36.8329 57.5523C36.2804 58.0014 35.6942 58.4077 35.0479 58.8872C35.0534 58.5687 35.0525 58.3246 35.064 58.0809C35.09 57.5197 35.1345 56.9595 35.1437 56.3984C35.1459 56.2823 35.0531 56.1255 34.9567 56.0531C34.364 55.6118 33.758 55.1902 33.1567 54.7605C33.1112 54.7277 33.0711 54.6866 32.9778 54.6049C33.7376 54.3943 34.4374 54.1789 35.1484 54.0125C35.4738 53.9365 35.6282 53.7779 35.7199 53.4582C35.9204 52.7564 36.162 52.0665 36.41 51.3007C36.7581 51.8206 37.0768 52.2867 37.3853 52.7588C37.9169 53.5718 37.9143 53.5692 38.8682 53.5441C39.429 53.5297 39.9908 53.5322 40.6369 53.5256C40.1281 54.1578 39.6813 54.7299 39.2146 55.2855C39.0124 55.5266 38.9224 55.7324 39.0598 56.0633C39.2877 56.6136 39.4472 57.193 39.633 57.7613C39.6737 57.8861 39.7061 58.0137 39.7657 58.2212L39.765 58.2221ZM38.6236 55.2939C38.7649 55.1201 38.8611 55.001 38.958 54.8818C38.8517 54.8226 38.7257 54.6951 38.6451 54.7206C38.5187 54.7594 38.4235 54.9014 38.315 55C38.4001 55.0807 38.4845 55.1615 38.6245 55.2945L38.6236 55.2939Z" fill="#06C270" fill-opacity="0.34"/>
<path d="M31.2167 13.9948C31.6764 14.6703 32.1088 15.2911 32.5252 15.923C32.6567 16.1218 32.7856 16.2223 33.0462 16.2119C33.812 16.1824 34.5796 16.1964 35.4398 16.1928C34.9772 16.7776 34.5981 17.3259 34.147 17.8044C33.8063 18.1654 33.7573 18.4819 33.9431 18.9344C34.1918 19.5397 34.3652 20.1772 34.599 20.8856C34.043 20.6818 33.5348 20.5589 33.0898 20.3171C32.3609 19.9219 31.7644 19.98 31.1632 20.5741C30.8054 20.9279 30.3518 21.1825 29.9402 21.4808C29.9322 21.4864 29.917 21.4826 29.8547 21.4871C29.8806 20.8568 29.8555 20.2226 29.9456 19.6063C30.0296 19.0301 29.8557 18.6844 29.3649 18.4023C28.8845 18.1262 28.4492 17.7694 27.9959 17.4456C27.9422 17.4072 27.899 17.354 27.8069 17.2654C28.4565 17.0839 29.0478 16.8773 29.6565 16.7595C30.199 16.6548 30.5074 16.4194 30.6291 15.8416C30.7595 15.2254 31.0061 14.6343 31.2151 13.9943L31.2167 13.9948ZM32.517 17.8833C32.7325 17.7799 32.9418 17.6796 33.079 17.6133C33.1966 17.754 33.2864 17.9372 33.3572 17.9301C33.4965 17.9162 33.6563 17.823 33.7508 17.713C33.8277 17.6234 33.8432 17.4608 33.8434 17.3309C33.8438 17.2284 33.7979 17.056 33.7385 17.0392C33.6479 17.0142 33.4693 17.0663 33.4325 17.1391C33.3185 17.3669 33.1593 17.3428 32.9566 17.3278C32.5874 17.2994 32.4608 17.4682 32.5163 17.8834L32.517 17.8833Z" fill="#06C270" fill-opacity="0.34"/>
<path d="M58.7637 23.3431C58.1537 23.4937 58.1571 23.4918 57.8764 22.9935C57.7034 22.6862 57.5256 22.3804 57.3385 22.0819C57.1634 21.8016 56.9337 21.5389 57.3039 21.1053C56.6514 21.2449 56.526 20.7899 56.2865 20.478C55.7388 19.7645 55.1878 19.0537 54.6791 18.3949C54.7014 18.192 54.7199 18.0245 54.7383 17.8564C54.5735 17.8449 54.4088 17.8342 54.1811 17.8183C53.5123 17.1815 52.7941 16.4581 52.035 15.7829C49.6458 13.6566 46.962 12.0079 43.9841 10.8874C42.7006 10.4048 41.3615 10.0749 40.0448 9.68467C39.8189 9.61807 39.5843 9.59947 39.6553 9.25678C39.6658 9.20628 39.573 9.13337 39.5277 9.07077C39.4704 9.12198 39.3949 9.16317 39.3613 9.22733C39.323 9.29886 39.3226 9.39097 39.2951 9.52554C38.88 9.37673 38.3866 9.53972 38.1192 9.17983C37.8448 9.20106 37.6239 9.24437 37.4068 9.23071C36.3053 9.16247 35.2047 9.07999 34.1085 9.0021C34.1465 8.82816 34.1898 8.63344 34.2337 8.43342C44.1873 8.21781 54.1412 14.2197 58.7637 23.3431Z" fill="#06C270" fill-opacity="0.34"/>
<path d="M40.6223 13.607C41.0427 14.2368 41.4144 14.7734 41.7626 15.3252C41.8883 15.5241 42.0272 15.6024 42.2584 15.5962C42.9263 15.5784 43.5952 15.5827 44.3367 15.5782C43.9782 16.0323 43.6793 16.4735 43.3167 16.851C42.9396 17.2447 42.8167 17.6088 43.0686 18.1372C43.2915 18.6037 43.4026 19.1246 43.5907 19.7044C43.0118 19.4942 42.4814 19.3432 41.9887 19.1104C41.5305 18.8943 41.1804 18.9292 40.7954 19.272C40.3917 19.6324 39.9279 19.9241 39.4211 20.2968C39.4336 19.886 39.3911 19.532 39.4642 19.2046C39.6767 18.2523 39.3884 17.594 38.4957 17.1842C38.1861 17.0419 37.9278 16.7839 37.5768 16.528C38.2571 16.3407 38.8626 16.1632 39.474 16.0116C39.7669 15.9388 39.9468 15.8167 40.0305 15.4915C40.1849 14.8904 40.3995 14.3061 40.623 13.6069L40.6223 13.607ZM41.2225 18.0777C40.9014 18.2325 40.7114 18.5401 40.853 18.6959C40.9162 18.7656 41.1274 18.8002 41.1905 18.7489C41.4313 18.5535 41.3685 18.3123 41.2225 18.0777Z" fill="#06C270" fill-opacity="0.34"/>
<path d="M30.9102 55.5709C30.4489 56.1547 30.058 56.681 29.6302 57.1739C29.4465 57.3849 29.4479 57.5644 29.5304 57.7998C29.7415 58.4083 29.9394 59.0215 30.1671 59.7078C29.6258 59.5094 29.1253 59.3786 28.6752 59.1472C28.1313 58.8675 27.712 58.9257 27.2636 59.3443C26.8885 59.6946 26.4374 59.9622 25.9762 60.2988C26.0098 59.6133 26.0326 58.9812 26.0783 58.3511C26.086 58.2483 26.2215 58.1592 26.2461 58.0518C26.2837 57.8853 26.2767 57.7082 26.2886 57.5357C26.1543 57.5437 26.0199 57.5561 25.8855 57.5582C25.7811 57.5597 25.6514 57.5855 25.5757 57.5354C25.1144 57.2284 24.6658 56.9017 24.1416 56.5323C24.6754 56.3807 25.134 56.1989 25.6094 56.1283C26.2613 56.0318 26.6162 55.7148 26.7398 55.0498C26.8237 54.5992 27.015 54.1688 27.1582 53.7297C27.1612 53.7197 27.1741 53.7126 27.2318 53.6532C27.5093 54.2128 28.0272 54.5905 28.1274 55.2645C28.1477 55.4004 28.5286 55.5608 28.7505 55.5723C29.4455 55.607 30.144 55.5767 30.911 55.5708L30.9102 55.5709Z" fill="#06C270" fill-opacity="0.34"/>
<path d="M42.7561 53.87C43.4994 53.6626 44.151 53.4949 44.7918 53.2916C44.9341 53.2469 45.0864 53.0997 45.149 52.9602C45.2783 52.6731 45.3238 52.3473 45.4523 52.0603C45.5803 51.7748 45.7685 51.5172 45.9652 51.1893C46.334 51.7367 46.645 52.2269 46.9899 52.6916C47.0782 52.8112 47.2696 52.9139 47.4166 52.9182C48.0889 52.9369 48.7626 52.9183 49.5273 52.9119C49.0345 53.5321 48.5956 54.0875 48.1493 54.6373C48.1181 54.6759 48.0287 54.6856 47.9705 54.6776C47.5311 54.6183 47.3808 54.8112 47.5367 55.2649C47.7199 55.1817 47.9015 55.0979 48.1073 55.0041C48.3301 55.6813 48.5435 56.3273 48.7802 57.0464C48.249 56.8525 47.7481 56.7241 47.2995 56.4924C46.7547 56.2113 46.3301 56.274 45.8806 56.6846C45.5084 57.0249 45.0712 57.292 44.6635 57.592C44.6266 57.5794 44.589 57.567 44.5521 57.5544C44.6251 57.126 44.7012 56.6987 44.7682 56.269C44.7808 56.1863 44.7655 56.0972 44.7502 56.0132C44.734 55.9227 44.6674 55.8275 44.6841 55.7479C44.7656 55.3651 44.6029 55.147 44.287 54.9492C43.7869 54.6365 43.3196 54.2702 42.7567 53.8692L42.7561 53.87Z" fill="#06C270" fill-opacity="0.34"/>
<path d="M10.4491 23.4119C10.3916 23.2345 10.3413 23.0783 10.2903 22.9215C10.2084 23.0594 10.1371 23.2046 10.0413 23.3319C9.96463 23.4333 9.85838 23.5116 9.69378 23.5491C9.85984 23.2374 10.0204 22.9228 10.1929 22.6154C11.551 20.1987 13.2259 18.0332 15.2108 16.1138C15.3669 15.9624 15.5042 15.8709 15.74 15.9242C16.0181 15.9871 16.299 15.965 16.4744 15.6096C16.3602 15.5309 16.2388 15.4472 16.0632 15.3259C21.142 10.9025 27.0213 8.63921 33.7037 8.44281C33.434 8.75661 33.2297 9.09376 32.7138 9.12112C28.4743 9.34119 24.515 10.5511 20.8317 12.6794C18.1485 14.2297 15.8043 16.2031 13.7814 18.5711C13.6675 18.7046 13.4865 18.7823 13.3294 18.8737C13.1262 18.9917 12.9235 19.0925 13.0167 19.4C13.0368 19.4654 12.9723 19.5704 12.9243 19.6411C12.3324 20.5181 11.7802 21.4274 11.1223 22.2508C10.8299 22.6168 10.7952 23.0999 10.4508 23.4132L10.4491 23.4119Z" fill="#06C270" fill-opacity="0.34"/>
<path d="M22.0138 16.2699C22.4244 16.8864 22.7937 17.401 23.1166 17.9445C23.2741 18.2094 23.4639 18.2634 23.7378 18.2541C24.3717 18.2337 25.006 18.237 25.7289 18.2299C25.246 18.8376 24.8123 19.3826 24.3799 19.9267C23.8652 19.5782 23.6939 19.5937 23.2599 20.063C23.0397 20.3007 22.8481 20.5655 22.6401 20.823C23.2704 21.1031 23.7277 20.9808 24.3046 20.3598C24.4017 20.6377 24.4902 20.8902 24.5652 21.1037C24.4774 21.2409 24.4124 21.3422 24.3475 21.4435C24.4376 21.4812 24.5311 21.5117 24.616 21.559C24.6708 21.5898 24.735 21.6356 24.7557 21.6898C24.8285 21.8821 24.8846 22.0805 24.9752 22.3646C24.4233 22.164 23.9119 22.0333 23.4539 21.7978C22.9265 21.5261 22.5258 21.6129 22.0977 21.993C21.7113 22.336 21.2691 22.615 20.7969 22.962C20.8283 22.2129 20.8682 21.525 20.8752 20.8373C20.8765 20.699 20.7876 20.512 20.6794 20.4286C20.1999 20.0588 19.6975 19.7197 19.2043 19.3675C19.1402 19.3217 19.082 19.2668 18.981 19.1825C19.6443 18.999 20.2525 18.8145 20.8695 18.6666C21.16 18.5971 21.3175 18.4663 21.4022 18.1647C21.5754 17.5461 21.7945 16.9411 22.0133 16.2715L22.0138 16.2699Z" fill="#06C270" fill-opacity="0.34"/>
<path d="M11.1117 56.2309C10.7955 56.5156 10.4936 56.7873 10.1702 57.0775C8.46734 55.0243 7.02468 52.773 5.84126 50.2591C6.26832 50.1983 6.65254 50.1347 7.03886 50.0968C7.10458 50.0905 7.21256 50.1775 7.24727 50.2483C8.29752 52.404 9.61987 54.3793 11.1131 56.2411C11.1202 56.2497 11.1207 56.2637 11.1102 56.2303L11.1117 56.2309Z" fill="#06C270" fill-opacity="0.34"/>
<path d="M61.496 42.3487C61.1638 43.4984 60.8645 44.564 60.5453 45.6228C60.4114 46.0658 60.2454 46.4992 60.0691 46.9274C60.004 47.0859 59.8648 47.2111 59.7679 47.357C59.7104 47.4432 59.622 47.5448 59.629 47.6322C59.6703 48.14 59.4662 48.4838 59.0611 48.782C58.7251 49.0295 58.459 49.374 58.0888 49.7496C58.4088 49.076 58.6935 48.4958 58.9625 47.9081C59.7151 46.2643 60.2972 44.5579 60.6757 42.7876C60.7766 42.3174 61.0875 42.4165 61.4967 42.3486L61.496 42.3487Z" fill="#06C270" fill-opacity="0.34"/>
<path d="M9.4647 23.9974C9.71153 24.5205 9.89106 24.0844 10.1691 23.9944C10.0241 24.2994 9.90048 24.5582 9.77861 24.8139C9.64198 24.8103 9.51641 24.8074 9.28937 24.8011C9.70504 25.2698 9.4049 25.6332 9.25889 26.0155C9.09352 26.4481 8.99489 26.9239 8.75048 27.3039C8.47842 27.7271 8.49552 28.2036 8.34284 28.6432C8.18408 29.1024 8.08093 29.5825 7.96519 30.0563C7.82113 30.6477 7.82708 30.6483 7.16789 30.682C7.64686 28.3592 8.41119 26.1569 9.46388 23.9967L9.4647 23.9974Z" fill="#06C270" fill-opacity="0.34"/>
</svg>
